:FULLY-SPECIFIED
:FORCE-ALL-JOINTS-BE-3DOF
:DEGREES
1529
root -4.45894 15.3216 20.0365 548.575 -14.8806 545.127
lfemur -38.144 17.3861 -3.8038
ltibia 82.6268 0 0
lfoot -11.8129 21.6838 0
ltoes -26.015 0 0
rfemur -33.231 -6.10667 14.4985
rtibia 61.1774 0 0
rfoot -19.5811 -14.2882 0
rtoes -32.5452 0 0
lowerback 17.3152 0.731913 5.30705
upperback -1.39365 2.27274 3.83078
thorax -11.2672 0.780763 0.620135
lowerneck -4.63349 7.59632 3.87688
upperneck 1.59557 10.1469 -9.15882
head 2.07487 4.8681 -3.28872
lclavicle 1.11427e-14 3.27169e-14 0
lhumerus -0.938232 -7.58081 71.8996
lradius 76.8126 0 0
lwrist 5.52166 0 0
lhand -23.0168 35.878 0
lfingers 7.12502 0 0
lthumb -0.475294 -155.783 0
rclavicle -1.64882e-15 6.30493e-14 0
rhumerus -52.327 35.555 -91.3912
rradius 108.322 0 0
rwrist -55.7817 0 0
rhand 11.198 -27.6337 0
rfingers 7.12502 0 0
rthumb 36.8554 -53.3388 0
1530
root -4.44989 15.3256 20.0573 548.282 -17.7309 545.098
lfemur -37.7188 17.7969 -3.57606
ltibia 83.0972 0 0
lfoot -11.912 21.9555 0
ltoes -26.298 0 0
rfemur -32.1536 -6.57134 14.1303
rtibia 60.9733 0 0
rfoot -19.1325 -14.1113 0
rtoes -32.2211 0 0
lowerback 17.2957 0.75359 5.14247
upperback -1.34161 2.26573 3.69009
thorax -11.1967 0.792535 0.557268
lowerneck -4.78933 7.05737 3.77972
upperneck 1.39921 9.40031 -8.58263
head 1.9409 4.51438 -3.10941
lclavicle 1.08393e-14 3.38121e-14 0
lhumerus -4.9748 -5.23517 74.1241
lradius 76.6964 0 0
lwrist 3.35412 0 0
lhand -23.5375 35.5679 0
lfingers 7.12502 0 0
lthumb -0.453741 -138.458 0
rclavicle -4.63724e-15 6.09267e-14 0
rhumerus -52.3567 35.519 -91.4247
rradius 107.95 0 0
rwrist -56.8647 0 0
rhand 10.5335 -27.881 0
rfingers 7.12502 0 0
rthumb 36.5269 -53.4687 0
1531
root -4.45661 15.3324 20.073 547.989 -20.9341 544.866
lfemur -37.4027 18.1022 -3.40681
ltibia 83.3903 0 0
lfoot -12.0136 22.2336 0
ltoes -26.5859 0 0
rfemur -31.1275 -7.0139 13.7796
rtibia 60.8076 0 0
rfoot -18.5382 -13.8771 0
rtoes -31.7008 0 0
lowerback 17.273 0.693686 4.87489
upperback -1.32235 2.134 3.57197
thorax -11.1691 0.751998 0.610919
lowerneck -4.842 6.508 3.44305
upperneck 1.31238 8.65902 -7.8065
head 1.80627 4.16558 -2.82061
lclavicle 1.07344e-14 3.4191e-14 0
lhumerus -8.01263 -3.46989 75.7983
lradius 76.6224 0 0
lwrist 1.1671 0 0
lhand -24.0734 35.2487 0
lfingers 7.12502 0 0
lthumb -0.431874 -120.881 0
rclavicle -7.75329e-15 5.87134e-14 0
rhumerus -52.4426 35.4149 -91.5215
rradius 107.522 0 0
rwrist -57.6696 0 0
rhand 9.76296 -28.1678 0
rfingers 7.12502 0 0
rthumb 36.1425 -53.6207 0
1532
root -4.4718 15.3435 20.0828 547.709 -24.0063 544.757
lfemur -37.2058 18.2925 -3.30136
ltibia 83.4913 0 0
lfoot -12.1158 22.5137 0
ltoes -26.8753 0 0
rfemur -30.1672 -7.42805 13.4515
rtibia 60.6842 0 0
rfoot -17.8177 -13.593 0
rtoes -31.0008 0 0
lowerback 17.1529 0.713425 4.52244
upperback -1.30283 2.08962 3.58886
thorax -11.0912 0.759682 0.839779
lowerneck -4.90625 5.94287 3.00132
upperneck 1.34358 7.91134 -7.10161
head 1.72121 3.80688 -2.53618
lclavicle 1.08737e-14 3.4113e-14 0
lhumerus -9.92687 -2.35753 76.8533
lradius 76.4077 0 0
lwrist -1.01992 0 0
lhand -24.6167 34.925 0
lfingers 7.12502 0 0
lthumb -0.409903 -103.22 0
rclavicle -1.09332e-14 5.64549e-14 0
rhumerus -52.5797 35.2487 -91.6761
rradius 107.047 0 0
rwrist -58.171 0 0
rhand 8.90145 -28.4885 0
rfingers 7.12502 0 0
rthumb 35.7083 -53.7924 0
1533
root -4.50539 15.3614 20.0866 547.637 -27.4267 544.433
lfemur -37.138 18.358 -3.26503
ltibia 83.3223 0 0
lfoot -12.2174 22.7918 0
ltoes -27.1632 0 0
rfemur -29.2875 -7.80746 13.1509
rtibia 60.6072 0 0
rfoot -16.9902 -13.2668 0
rtoes -30.1373 0 0
lowerback 16.6943 0.592089 4.13883
upperback -1.2626 1.82717 3.55535
thorax -10.7948 0.670033 1.08814
lowerneck -4.87994 5.3698 2.62462
upperneck 1.25449 7.14636 -6.44874
head 1.59616 3.44163 -2.2851
lclavicle 1.12764e-14 3.38875e-14 0
lhumerus -10.5927 -1.97062 77.2202
lradius 76.0631 0 0
lwrist -3.18746 0 0
lhand -25.1601 34.6014 0
lfingers 7.12502 0 0
lthumb -0.388036 -85.6434 0
rclavicle -1.4113e-14 5.41963e-14 0
rhumerus -52.7632 35.0262 -91.8829
rradius 106.534 0 0
rwrist -58.3438 0 0
rhand 7.96415 -28.8373 0
rfingers 7.12502 0 0
rthumb 35.2306 -53.9813 0
1534
root -4.53833 15.3792 20.0803 547.722 -30.793 544.022
lfemur -37.0725 18.3256 -3.31772
ltibia 82.8346 0 0
lfoot -12.3165 23.0635 0
ltoes -27.4462 0 0
rfemur -28.5029 -8.14583 12.8828
rtibia 60.5806 0 0
rfoot -16.0753 -12.9062 0
rtoes -29.1267 0 0
lowerback 16.1844 0.524106 3.50005
upperback -1.20955 1.59053 3.57097
thorax -10.46 0.606985 1.52519
lowerneck -4.80562 4.77477 2.3478
upperneck 0.892484 6.33753 -6.09375
head 1.39991 3.05021 -2.15324
lclavicle 1.19195e-14 3.35274e-14 0
lhumerus -10.5585 -2.04851 77.2446
lradius 75.5993 0 0
lwrist -5.31607 0 0
lhand -25.696 34.2822 0
lfingers 7.12502 0 0
lthumb -0.366483 -68.3185 0
rclavicle -1.72291e-14 5.1983e-14 0
rhumerus -52.9882 34.7535 -92.1366
rradius 105.993 0 0
rwrist -58.3269 0 0
rhand 6.96621 -29.2088 0
rfingers 7.12502 0 0
rthumb 34.7156 -54.1849 0
1535
root -4.58704 15.3926 20.07 547.835 -34.2685 543.651
lfemur -36.8818 18.2312 -3.47099
ltibia 82.0573 0 0
lfoot -12.4119 23.3245 0
ltoes -27.7214 0 0
rfemur -27.8282 -8.43684 12.6522
rtibia 60.6351 0 0
rfoot -15.0924 -12.5187 0
rtoes -27.9854 0 0
lowerback 15.5491 0.41882 2.97627
upperback -1.15657 1.32689 3.62369
thorax -10.0468 0.52163 1.94095
lowerneck -4.50836 4.19974 2.02506
upperneck 0.333349 5.55132 -5.72053
head 1.10793 2.67517 -2.00916
lclavicle 1.27801e-14 3.30454e-14 0
lhumerus -10.4589 -2.27509 77.3158
lradius 75.0273 0 0
lwrist -7.38627 0 0
lhand -26.2167 33.9721 0
lfingers 7.12502 0 0
lthumb -0.345452 -51.4137 0
rclavicle -2.02175e-14 4.98604e-14 0
rhumerus -53.2499 34.4363 -92.4315
rradius 105.432 0 0
rwrist -58.2783 0 0
rhand 5.9228 -29.5971 0
rfingers 7.12502 0 0
rthumb 34.1695 -54.4008 0
1536
root -4.64665 15.3966 20.0575 548.12 -37.8291 543.315
lfemur -36.5751 18.0794 -3.71766
ltibia 81.0191 0 0
lfoot -12.5018 23.5708 0
ltoes -27.9854 0 0
rfemur -27.2779 -8.67417 12.4641
rtibia 60.7935 0 0
rfoot -14.0609 -12.1121 0
rtoes -26.7297 0 0
lowerback 14.7917 0.263269 2.56411
upperback -1.19357 1.02508 3.72018
thorax -9.6566 0.409368 2.34601
lowerneck -4.43148 3.63889 1.60119
upperneck 0.0921966 4.80441 -5.35085
head 0.962266 2.31082 -1.83839
lclavicle 1.38354e-14 3.24544e-14 0
lhumerus -10.2986 -2.63975 77.4302
lradius 74.3579 0 0
lwrist -9.3786 0 0
lhand -26.7147 33.6755 0
lfingers 7.12502 0 0
lthumb -0.325153 -35.0972 0
rclavicle -2.30145e-14 4.78737e-14 0
rhumerus -53.5433 34.0807 -92.7623
rradius 104.863 0 0
rwrist -58.2012 0 0
rhand 4.84907 -29.9967 0
rfingers 7.12502 0 0
rthumb 33.5986 -54.6266 0
